0
SECTION
2
HEADER
9
$INSUNITS
70
4
9
$ACADVER
1
AC1014
9
$HANDSEED
5
FFFF
0
ENDSEC
0
SECTION
2
TABLES
0
TABLE
2
VPORT
5
8
100
AcDbSymbolTable
0
ENDTAB
0
TABLE
2
LTYPE
5
5
100
AcDbSymbolTable
0
LTYPE
5
14
100
AcDbSymbolTableRecord
100
AcDbLinetypeTableRecord
2
BYBLOCK
70
0
0
LTYPE
5
15
100
AcDbSymbolTableRecord
100
AcDbLinetypeTableRecord
2
BYLAYER
70
0
0
ENDTAB
0
TABLE
2
LAYER
5
2
100
AcDbSymbolTable
70
2
0
LAYER
5
50
100
AcDbSymbolTableRecord
100
AcDbLayerTableRecord
2
0
70
0
6
CONTINUOUS
0
ENDTAB
0
TABLE
2
STYLE
5
3
100
AcDbSymbolTable
70
1
0
STYLE
5
11
100
AcDbSymbolTableRecord
100
AcDbTextStyleTableRecord
2
STANDARD
70
0
0
ENDTAB
0
TABLE
2
VIEW
5
6
100
AcDbSymbolTable
70
0
0
ENDTAB
0
TABLE
2
UCS
5
7
100
AcDbSymbolTable
70
0
0
ENDTAB
0
TABLE
2
APPID
5
9
100
AcDbSymbolTable
70
2
0
APPID
5
12
100
AcDbSymbolTableRecord
100
AcDbRegAppTableRecord
2
ACAD
70
0
0
ENDTAB
0
TABLE
2
DIMSTYLE
5
A
100
AcDbSymbolTable
70
1
0
ENDTAB
0
TABLE
2
BLOCK_RECORD
5
1
100
AcDbSymbolTable
70
1
0
BLOCK_RECORD
5
1F
100
AcDbSymbolTableRecord
100
AcDbBlockTableRecord
2
*MODEL_SPACE
0
BLOCK_RECORD
5
1B
100
AcDbSymbolTableRecord
100
AcDbBlockTableRecord
2
*PAPER_SPACE
0
ENDTAB
0
ENDSEC
0
SECTION
2
BLOCKS
0
BLOCK
5
20
100
AcDbEntity
100
AcDbBlockBegin
2
*MODEL_SPACE
0
ENDBLK
5
21
100
AcDbEntity
100
AcDbBlockEnd
0
BLOCK
5
1C
100
AcDbEntity
100
AcDbBlockBegin
2
*PAPER_SPACE
0
ENDBLK
5
1D
100
AcDbEntity
100
AcDbBlockEnd
0
ENDSEC
0
SECTION
2
ENTITIES
0
ELLIPSE
5
100
100
AcDbEntity
8
0
100
AcDbEllipse
10
13.609339277923345
20
-75.959111279637767
30
0
11
-0.87408037499658842
21
-3.0523504842158902
31
0.0
40
0.99998834515028112
41
1.4738483472357591
42
4.6270678589635779
0
ARC
5
101
100
AcDbEntity
8
0
100
AcDbCircle
10
13.596008069662167
20
-75.99347872988092
30
7.1054273576010019e-14
40
3.1750000000000393
100
AcDbArc
50
158.46642644417153
51
339.13069081960009
0
CIRCLE
5
102
100
AcDbEntity
8
0
100
AcDbCircle
10
0.65152023257036484
20
-100.82281179976512
30
7.1054273576010019e-14
40
2.0000000000000187
0
LWPOLYLINE
5
103
100
AcDbEntity
8
0
100
AcDbPolyline
90
4
70
1
43
0.0
10
42.893655335779719
20
-5.3596967871660306
10
31.301860105661611
20
-27.509872482699901
10
43.262954981249955
20
-33.769441906963785
10
54.854750211368071
20
-11.619266211429917
0
CIRCLE
5
104
100
AcDbEntity
8
0
100
AcDbCircle
10
50.033382296585707
20
-6.2744639297445826
30
0
40
1.1000000000000085
0
CIRCLE
5
105
100
AcDbEntity
8
0
100
AcDbCircle
10
36.043493120966417
20
-32.811083236341872
30
0
40
1.1000000000000085
0
CIRCLE
5
106
100
AcDbEntity
8
0
100
AcDbCircle
10
-39.61085805427787
20
-177.31298984137908
30
0
40
3.1750000000000478
0
CIRCLE
5
107
100
AcDbEntity
8
0
100
AcDbCircle
10
-11.839852294336534
20
-124.50321342588433
30
0
40
7.0750000000000854
0
CIRCLE
5
108
100
AcDbEntity
8
0
100
AcDbCircle
10
26.540495906754028
20
-51.164145659996656
30
0
40
2.0000000000000275
0
CIRCLE
5
109
100
AcDbEntity
8
0
100
AcDbCircle
10
-22.399891943143786
20
-144.68185952249056
30
7.1054273576010019e-14
40
2.0000000000000364
0
CIRCLE
5
110
100
AcDbEntity
8
0
100
AcDbCircle
10
-56.419247053371947
20
-141.21256883357162
30
0
40
2.0000000000000364
0
CIRCLE
5
111
100
AcDbEntity
8
0
100
AcDbCircle
10
-34.177155896943816
20
-167.18643802915301
30
-7.1054273576010019e-14
40
2.0000000000000187
0
CIRCLE
5
112
100
AcDbEntity
8
0
100
AcDbCircle
10
-0.15780078671571079
20
-170.65572871807206
30
7.1054273576010019e-14
40
2.0000000000000364
0
LWPOLYLINE
5
113
100
AcDbEntity
8
0
100
AcDbPolyline
90
42
70
1
43
0.0
10
-44.628574252705249
20
-182.58769442092785
42
-0.41421356237310014
10
-46.740250345788454
20
-175.83930023579742
10
-44.885563944988647
20
-172.29527372201861
42
0.41421356237309853
10
-46.997240038071823
20
-165.54687953688816
10
-66.26789289318657
20
-155.46201768668513
42
-0.41421356237310458
10
-68.379568986269732
20
-148.71362350155468
10
-59.106132802175217
20
-130.99348294512754
42
-0.41421356237309576
10
-52.357738617044816
20
-128.88180685204446
10
-40.069794243827737
20
-135.31242559436603
42
0.41421356237309592
10
-36.695597151262533
20
-134.25658754782444
10
-27.34497528121036
20
-116.38895676480168
42
-0.25587472532287503
10
-13.354519930797636
20
-107.06888573735372
42
0.25587472532288025
10
-9.3572469735369026
20
-104.4060083009401
10
11.911051159575049
20
-63.765492225448298
10
11.911744462474774
20
-63.765855049895222
10
24.749379184871543
20
-39.235067629034496
42
0.41421356237309981
10
22.637703091788364
20
-32.486673443904081
10
23.874749375026539
20
-33.134053735716741
42
-0.41421356237309509
10
21.763073281943409
20
-26.38565955058629
10
37.064243040973309
20
2.8525724731386566
42
-0.4142135623730952
10
43.812637226103718
20
4.9642485662218174
10
62.602713327339934
20
-4.8691142710664508
42
-0.41421356237309553
10
64.714389420423075
20
-11.617508456196898
10
49.413219661393164
20
-40.855740479921835
42
-0.41421356237309598
10
42.664825476262756
20
-42.967416573004996
10
43.901871759500992
20
-43.614796864817663
42
0.41421356237309931
10
37.153477574370541
20
-45.726472957900768
10
23.935648708275899
20
-70.983754154241581
42
-0.0037381349873582765
10
23.8864259410622
20
-71.076123830639062
10
3.1163726768031523
20
-110.76456896583207
42
0.2592055418959156
10
3.2383500136329957
20
-115.62076921497321
42
-0.25920554189590578
10
3.665270692537165
20
-132.61747008696713
10
-5.6853511775149883
20
-150.48510086999008
42
0.4142135623731002
10
-4.6295131309733915
20
-153.8592979625553
10
7.4477357608968395
20
-160.17965397336383
42
-0.4142135623731002
10
9.5594118539800057
20
-166.92804815849428
10
0.28597566988547707
20
-184.64818871492145
42
-0.41421356237309426
10
-6.4624185152449165
20
-186.75986480800452
10
-25.733071370359482
20
-176.67500295780158
42
0.41421356237309365
10
-32.481465555489876
20
-178.78667905088474
10
-34.336151956289726
20
-182.33070556466359
42
-0.41421356237309614
10
-41.084546141420113
20
-184.44238165774664
0
CIRCLE
5
114
100
AcDbEntity
8
0
100
AcDbCircle
10
0.65152023257036484
20
-100.82281179976512
30
7.1054273576010019e-14
40
2.0000000000000187
0
LWPOLYLINE
5
115
100
AcDbEntity
8
0
100
AcDbPolyline
90
4
70
1
43
0.0
10
43.262954981249955
20
-33.769441906963785
10
54.854750211368071
20
-11.619266211429917
10
42.893655335779719
20
-5.3596967871660306
10
31.301860105661611
20
-27.509872482699901
0
CIRCLE
5
116
100
AcDbEntity
8
0
100
AcDbCircle
10
50.033382296585707
20
-6.2744639297445826
30
0
40
1.1000000000000121
0
CIRCLE
5
117
100
AcDbEntity
8
0
100
AcDbCircle
10
36.043493120966417
20
-32.811083236341872
30
0
40
1.1000000000000076
0
CIRCLE
5
118
100
AcDbEntity
8
0
100
AcDbCircle
10
-39.61085805427787
20
-177.31298984137908
30
0
40
3.1750000000000478
0
LWPOLYLINE
5
119
100
AcDbEntity
8
0
100
AcDbPolyline
90
42
70
1
43
0.0
10
22.637703091788364
20
-32.486673443904081
42
-0.41421356237309964
10
24.749379184871543
20
-39.235067629034496
10
11.911744462474774
20
-63.765855049895222
10
11.911051159575049
20
-63.765492225448298
10
-9.357246973536899
20
-104.4060083009401
42
-0.25587472532288025
10
-13.354519930797636
20
-107.06888573735372
42
0.25587472532287503
10
-27.34497528121036
20
-116.38895676480168
10
-36.69559715126254
20
-134.25658754782444
42
-0.41421356237309576
10
-40.069794243827737
20
-135.31242559436603
10
-52.357738617044816
20
-128.88180685204446
42
0.41421356237309576
10
-59.106132802175217
20
-130.99348294512754
10
-68.379568986269732
20
-148.71362350155468
42
0.41421356237310458
10
-66.26789289318657
20
-155.46201768668513
10
-46.99724003807183
20
-165.54687953688813
42
-0.41421356237309942
10
-44.885563944988647
20
-172.29527372201861
10
-46.740250345788454
20
-175.83930023579742
42
0.41421356237310014
10
-44.628574252705249
20
-182.58769442092785
10
-41.084546141420113
20
-184.44238165774664
42
0.41421356237309614
10
-34.33615195628969
20
-182.33070556466359
10
-32.481465555489848
20
-178.78667905088474
42
-0.41421356237309298
10
-25.733071370359482
20
-176.67500295780158
10
-6.4624185152449165
20
-186.75986480800452
42
0.41421356237309426
10
0.28597566988548317
20
-184.64818871492145
10
9.5594118539800075
20
-166.92804815849428
42
0.4142135623731002
10
7.4477357608968333
20
-160.17965397336383
10
-4.6295131309734101
20
-153.85929796255533
42
-0.4142135623731002
10
-5.6853511775149883
20
-150.48510086999008
10
3.6652706925371636
20
-132.61747008696713
42
0.25920554189590578
10
3.2383500136329655
20
-115.62076921497324
42
-0.25920554189591605
10
3.1163726768031541
20
-110.76456896583207
10
23.8864259410622
20
-71.076123830639062
42
0.0037381349873583038
10
23.935648708275906
20
-70.983754154241581
10
37.153477574370548
20
-45.726472957900768
42
-0.4142135623730992
10
43.901871759500992
20
-43.614796864817663
10
42.664825476262756
20
-42.967416573004996
42
0.41421356237309598
10
49.413219661393192
20
-40.855740479921856
10
64.714389420423075
20
-11.617508456196898
42
0.41421356237309553
10
62.602713327339927
20
-4.8691142710664739
10
43.812637226103718
20
4.9642485662218165
42
0.4142135623730952
10
37.064243040973288
20
2.8525724731386637
10
21.763073281943409
20
-26.38565955058629
42
0.41421356237309509
10
23.874749375026553
20
-33.134053735716712
0
CIRCLE
5
120
100
AcDbEntity
8
0
100
AcDbCircle
10
-11.839852294336534
20
-124.50321342588433
30
0
40
7.0750000000000854
0
CIRCLE
5
121
100
AcDbEntity
8
0
100
AcDbCircle
10
26.540495906754028
20
-51.164145659996656
30
0
40
2.0000000000000284
0
CIRCLE
5
122
100
AcDbEntity
8
0
100
AcDbCircle
10
-22.399891943143786
20
-144.68185952249056
30
7.1054273576010019e-14
40
2.0000000000000373
0
CIRCLE
5
123
100
AcDbEntity
8
0
100
AcDbCircle
10
-56.419247053371947
20
-141.21256883357162
30
0
40
2.0000000000000373
0
CIRCLE
5
124
100
AcDbEntity
8
0
100
AcDbCircle
10
-34.177155896943816
20
-167.18643802915301
30
-7.1054273576010019e-14
40
2.0000000000000195
0
CIRCLE
5
125
100
AcDbEntity
8
0
100
AcDbCircle
10
-0.15780078671571079
20
-170.65572871807206
30
7.1054273576010019e-14
40
2.0000000000000364
0
ENDSEC
0
SECTION
2
OBJECTS
0
DICTIONARY
5
C
100
AcDbDictionary
3
ACAD_GROUP
350
D
3
ACAD_MLINESTYLE
350
17
0
DICTIONARY
5
D
100
AcDbDictionary
0
DICTIONARY
5
1A
330
C
100
AcDbDictionary
0
DICTIONARY
5
17
100
AcDbDictionary
0
ENDSEC
0
EOF
